<svg xmlns="http://www.w3.org/2000/svg" viewBox="0 0 512 128">
  <rect x="0" y="0" width="128" height="128" rx="28" fill="#0f8f72"/>
  <g transform="translate(0,0) scale(0.5)">
    <rect x="60" y="112" width="136" height="72" rx="16" fill="#ffffff"/>
    <rect x="76" y="126" width="46" height="28" rx="6" fill="#0f8f72"/>
    <rect x="134" y="126" width="46" height="28" rx="6" fill="#0f8f72"/>
    <circle cx="92" cy="184" r="15" fill="#0b5c49"/>
    <circle cx="92" cy="184" r="5" fill="#ffffff"/>
    <circle cx="164" cy="184" r="15" fill="#0b5c49"/>
    <circle cx="164" cy="184" r="5" fill="#ffffff"/>
    <path d="M 190 66 A 20 20 0 0 1 210 86" fill="none" stroke="#ffffff" stroke-width="8" stroke-linecap="round"/>
    <path d="M 190 48 A 38 38 0 0 1 228 86" fill="none" stroke="#ffffff" stroke-width="8" stroke-linecap="round" opacity="0.75"/>
    <path d="M 190 30 A 56 56 0 0 1 246 86" fill="none" stroke="#ffffff" stroke-width="8" stroke-linecap="round" opacity="0.5"/>
  </g>
  <text x="148" y="82" font-family="DejaVu Sans" font-weight="bold" font-size="52" fill="#0f8f72">TFI Live</text>
</svg>
